<?xml version="1.0" encoding="UTF-8" standalone="no"?>
<!-- Created with Inkscape (http://www.inkscape.org/) -->

<svg
   width="81.244301mm"
   height="25.944992mm"
   viewBox="0 0 81.244301 25.944992"
   version="1.1"
   id="svg1"
   xml:space="preserve"
   xmlns:xlink="http://www.w3.org/1999/xlink"
   xmlns="http://www.w3.org/2000/svg"
   xmlns:svg="http://www.w3.org/2000/svg"><defs
     id="defs1"><linearGradient
       id="linearGradient245"><stop
         style="stop-color:#000000;stop-opacity:1;"
         offset="0"
         id="stop245" /><stop
         style="stop-color:#434343;stop-opacity:1;"
         offset="1"
         id="stop246" /></linearGradient><linearGradient
       id="linearGradient234"><stop
         style="stop-color:#49b375;stop-opacity:1;"
         offset="0"
         id="stop234" /><stop
         style="stop-color:#d017f3;stop-opacity:0.92156863;"
         offset="1"
         id="stop235" /></linearGradient><linearGradient
       id="swatch56"><stop
         style="stop-color:#08ff38;stop-opacity:1;"
         offset="0"
         id="stop56" /></linearGradient><linearGradient
       xlink:href="#linearGradient234"
       id="linearGradient669"
       gradientUnits="userSpaceOnUse"
       x1="66.665085"
       y1="244.57655"
       x2="123.93806"
       y2="244.57655"
       gradientTransform="translate(17.399245,4.1159503)" /></defs><g
     id="layer1"
     transform="translate(-61.534215,-246.06252)"><path
       id="path659"
       style="fill:url(#linearGradient669);fill-opacity:1;fill-rule:evenodd;stroke:#000000;stroke-width:0.215;stroke-linecap:round;stroke-linejoin:round;stroke-dasharray:none;stroke-opacity:1"
       d="m 86.907377,246.17 -2.23761,4.964 56.206393,3e-5 -5.53868,-4.96403 z m -0.512134,0 L 61.82,246.17013 61.754629,255.5 h 7.295937 l -7.408851,16.4 h 79.101115 c 0,-9.86964 4.14335,-11.23523 0.28732,-20.41082 l -12.05611,11.24482 -49.862073,-3e-5 z m 23.754107,5.33 h -6.80992 c -1.52013,2.70624 -3.21629,5.86274 -4.737697,8.57115 -0.157392,-0.83037 -0.3178,-1.66976 -0.541569,-2.4319 l -0.09767,-0.33021 h 1.739945 c 1.005111,-1.81797 2.159571,-3.99108 3.164671,-5.80904 -2.60128,1e-5 -7.859982,0 -7.859982,0 -1.8585,3.37013 -3.84452,7.47987 -5.70302,10.85 1.2309,0.005 2.394858,-0.006 3.625618,0 l 2.011247,-3.15346 0.160197,0.50384 c 0.24409,0.76659 0.545009,1.88303 0.789099,2.64962 h 3.170866 c 1.46e-4,5.1e-4 3.71e-4,-0.001 5.17e-4,0 1.675378,0.003 4.077398,-0.003 5.752618,0 z m 0.76068,5e-5 -1.89033,3.81739 3.02307,-0.0191 -3.62975,7.05166 h 20.38635 L 140.4984,251.5 h -12.50053 l -3.41013,7.43657 c -4.56735,0.011 -6.46814,0.002 -11.0355,0.008 l 3.47007,-7.44456 z m -26.364681,-5e-5 -4.859774,10.85 h 8.730734 l 1.528588,-2.88301 -5.872509,0.10852 0.868681,-1.63142 4.990909,-0.0543 1.304314,-2.24328 -5.287533,-0.0543 0.767912,-1.43867 h 6.107637 l 1.368392,-2.63815 z m 33.807121,0.86613 -0.52762,1.13275 2.2226,0.016 0.56844,-1.14888 z m 3.28713,-1.3e-4 -2.59674,5.492 2.17093,-1.7e-4 1.26452,-2.49183 h 2.13837 l 1.3746,-3 z m -23.673487,0.63059 h 2.308907 l -0.21498,0.38499 c -0.488789,0.87205 -0.977785,1.74485 -1.466575,2.6169 l -0.07648,0.13487 -0.153996,-0.002 c -0.57806,-0.008 -1.156388,-0.0153 -1.734778,-0.0233 l -0.439249,-0.006 0.218591,-0.38241 c 0.49468,-0.86438 0.989984,-1.7277 1.484664,-2.59208 z m 7.101897,0.076 2.31407,5.1e-4 -0.22066,0.38654 c -0.49437,0.87213 -0.98771,1.74478 -1.48208,2.6169 l -0.0765,0.13281 -0.154,-0.002 c -0.5726,-0.008 -1.14437,-0.0158 -1.71721,-0.0238 l -0.44131,-0.006 0.2191,-0.38292 c 0.49472,-0.86435 0.98942,-1.72773 1.48415,-2.59209 z m 18.41127,0.15554 h 1.25523 l -0.48215,0.96274 -1.21956,-0.0191 z m -5.92418,0.87954 -1.78646,3.75033 h 2.27842 l 1.80764,-3.72915 z" /></g></svg>
